<svg width="1400" height="1150" viewBox="0 0 1400 1150" xmlns="http://www.w3.org/2000/svg" xmlns:xlink="http://www.w3.org/1999/xlink">
  <defs>
    <!-- Background Gradient -->
    <linearGradient id="backgroundGradient" x1="0%" y1="0%" x2="0%" y2="100%">
      <stop offset="0%" stop-color="#0f172a" />
      <stop offset="100%" stop-color="#1e293b" />
    </linearGradient>

    <!-- Drop Shadow Filter -->
    <filter id="dropShadow" x="-50%" y="-50%" width="200%" height="200%">
      <feGaussianBlur in="SourceAlpha" stdDeviation="4" />
      <feOffset dx="6" dy="6" result="offsetblur" />
      <feFlood flood-color="#000" flood-opacity="0.4" />
      <feComposite in2="offsetblur" operator="in" />
      <feMerge>
        <feMergeNode />
        <feMergeNode in="SourceGraphic" />
      </feMerge>
    </filter>

    <!-- Isometric Block Gradients (Top, Left, Right) -->
    <!-- Blue (#3b82f6 family): Catalog/data ingestion -->
    <linearGradient id="blueTop" x1="0%" y1="0%" x2="100%" y2="100%"><stop offset="0%" stop-color="#60a5fa"/><stop offset="100%" stop-color="#3b82f6"/></linearGradient>
    <linearGradient id="blueLeft" x1="0%" y1="0%" x2="100%" y2="100%"><stop offset="0%" stop-color="#2563eb"/><stop offset="100%" stop-color="#1d4ed8"/></linearGradient>
    <linearGradient id="blueRight" x1="0%" y1="0%" x2="100%" y2="100%"><stop offset="0%" stop-color="#3b82f6"/><stop offset="100%" stop-color="#2563eb"/></linearGradient>
    <!-- Green (#34d399 family): API/Engine -->
    <linearGradient id="greenTop" x1="0%" y1="0%" x2="100%" y2="100%"><stop offset="0%" stop-color="#6ee7b7"/><stop offset="100%" stop-color="#34d399"/></linearGradient>
    <linearGradient id="greenLeft" x1="0%" y1="0%" x2="100%" y2="100%"><stop offset="0%" stop-color="#059669"/><stop offset="100%" stop-color="#047857"/></linearGradient>
    <linearGradient id="greenRight" x1="0%" y1="0%" x2="100%" y2="100%"><stop offset="0%" stop-color="#34d399"/><stop offset="100%" stop-color="#059669"/></linearGradient>
    <!-- Amber/Yellow (#fbbf24 family): User data -->
    <linearGradient id="amberTop" x1="0%" y1="0%" x2="100%" y2="100%"><stop offset="0%" stop-color="#fcd34d"/><stop offset="100%" stop-color="#fbbf24"/></linearGradient>
    <linearGradient id="amberLeft" x1="0%" y1="0%" x2="100%" y2="100%"><stop offset="0%" stop-color="#d97706"/><stop offset="100%" stop-color="#b45309"/></linearGradient>
    <linearGradient id="amberRight" x1="0%" y1="0%" x2="100%" y2="100%"><stop offset="0%" stop-color="#fbbf24"/><stop offset="100%" stop-color="#d97706"/></linearGradient>
    <!-- Indigo (#818cf8 family): ML/Embeddings -->
    <linearGradient id="indigoTop" x1="0%" y1="0%" x2="100%" y2="100%"><stop offset="0%" stop-color="#a5b4fc"/><stop offset="100%" stop-color="#818cf8"/></linearGradient>
    <linearGradient id="indigoLeft" x1="0%" y1="0%" x2="100%" y2="100%"><stop offset="0%" stop-color="#4f46e5"/><stop offset="100%" stop-color="#4338ca"/></linearGradient>
    <linearGradient id="indigoRight" x1="0%" y1="0%" x2="100%" y2="100%"><stop offset="0%" stop-color="#818cf8"/><stop offset="100%" stop-color="#4f46e5"/></linearGradient>
    <!-- Rose/Pink (#fb7185 family): Prestige -->
    <linearGradient id="roseTop" x1="0%" y1="0%" x2="100%" y2="100%"><stop offset="0%" stop-color="#fda4af"/><stop offset="100%" stop-color="#fb7185"/></linearGradient>
    <linearGradient id="roseLeft" x1="0%" y1="0%" x2="100%" y2="100%"><stop offset="0%" stop-color="#e11d48"/><stop offset="100%" stop-color="#be123c"/></linearGradient>
    <linearGradient id="roseRight" x1="0%" y1="0%" x2="100%" y2="100%"><stop offset="0%" stop-color="#fb7185"/><stop offset="100%" stop-color="#e11d48"/></linearGradient>
    <!-- Purple (#a78bfa family): User input/CLI -->
    <linearGradient id="purpleTop" x1="0%" y1="0%" x2="100%" y2="100%"><stop offset="0%" stop-color="#c4b5fd"/><stop offset="100%" stop-color="#a78bfa"/></linearGradient>
    <linearGradient id="purpleLeft" x1="0%" y1="0%" x2="100%" y2="100%"><stop offset="0%" stop-color="#7c3aed"/><stop offset="100%" stop-color="#6d28d9"/></linearGradient>
    <linearGradient id="purpleRight" x1="0%" y1="0%" x2="100%" y2="100%"><stop offset="0%" stop-color="#a78bfa"/><stop offset="100%" stop-color="#7c3aed"/></linearGradient>
    <!-- Slate (#64748b family): Config/infrastructure -->
    <linearGradient id="slateTop" x1="0%" y1="0%" x2="100%" y2="100%"><stop offset="0%" stop-color="#94a3b8"/><stop offset="100%" stop-color="#64748b"/></linearGradient>
    <linearGradient id="slateLeft" x1="0%" y1="0%" x2="100%" y2="100%"><stop offset="0%" stop-color="#334155"/><stop offset="100%" stop-color="#1e293b"/></linearGradient>
    <linearGradient id="slateRight" x1="0%" y1="0%" x2="100%" y2="100%"><stop offset="0%" stop-color="#64748b"/><stop offset="100%" stop-color="#334155"/></linearGradient>
    <!-- Teal (#14b8a6 family): Temperature/randomness -->
    <linearGradient id="tealTop" x1="0%" y1="0%" x2="100%" y2="100%"><stop offset="0%" stop-color="#5eead4"/><stop offset="100%" stop-color="#14b8a6"/></linearGradient>
    <linearGradient id="tealLeft" x1="0%" y1="0%" x2="100%" y2="100%"><stop offset="0%" stop-color="#0f766e"/><stop offset="100%" stop-color="#0d5650"/></linearGradient>
    <linearGradient id="tealRight" x1="0%" y1="0%" x2="100%" y2="100%"><stop offset="0%" stop-color="#14b8a6"/><stop offset="100%" stop-color="#0f766e"/></linearGradient>
    <!-- Orange (#f97316 family): Explanations -->
    <linearGradient id="orangeTop" x1="0%" y1="0%" x2="100%" y2="100%"><stop offset="0%" stop-color="#fdba74"/><stop offset="100%" stop-color="#f97316"/></linearGradient>
    <linearGradient id="orangeLeft" x1="0%" y1="0%" x2="100%" y2="100%"><stop offset="0%" stop-color="#c2410c"/><stop offset="100%" stop-color="#9a3412"/></linearGradient>
    <linearGradient id="orangeRight" x1="0%" y1="0%" x2="100%" y2="100%"><stop offset="0%" stop-color="#f97316"/><stop offset="100%" stop-color="#c2410c"/></linearGradient>

    <!-- Arrowhead Marker -->
    <marker id="arrowhead" markerWidth="10" markerHeight="7" refX="0" refY="3.5" orient="auto">
      <polygon points="0 0, 10 3.5, 0 7" fill="#94a3b8" />
    </marker>
  </defs>

  <!-- Background -->
  <rect x="0" y="0" width="100%" height="100%" fill="url(#backgroundGradient)" />

  <!-- Title -->
  <text x="600" y="40" text-anchor="middle" fill="white" font-size="36" font-weight="bold" font-family="Segoe UI, Helvetica Neue, Arial, sans-serif">autofilm</text>
  <text x="600" y="75" text-anchor="middle" fill="#94a3b8" font-size="18" font-family="Segoe UI, Helvetica Neue, Arial, sans-serif">PERSONAL MOVIE RECOMMENDATION ENGINE — ARCHITECTURE</text>

  <!-- Main content group -->
  <g>

    <!-- Layer 1 - EXTERNAL DATA SOURCES -->
    <text x="100" y="140" fill="#94a3b8" font-size="14" font-weight="bold" font-family="Segoe UI, Helvetica Neue, Arial, sans-serif">LAYER 1 - EXTERNAL DATA SOURCES</text>
    <g id="layer1_blocks">
      <!-- MovieLens -->
      <g transform="translate(50, 180)" filter="url(#dropShadow)">
        <polygon points="0,-25 75,0 150,-25 75,-50" fill="url(#blueTop)" />
        <polygon points="0,-25 0,50 75,75 75,0" fill="url(#blueLeft)" />
        <polygon points="75,0 150,-25 150,50 75,75" fill="url(#blueRight)" />
        <text x="75" y="10" text-anchor="middle" fill="white" font-size="12" font-family="Segoe UI, Helvetica Neue, Arial, sans-serif">MovieLens</text>
        <text x="75" y="25" text-anchor="middle" fill="#cbd5e1" font-size="10" font-family="Segoe UI, Helvetica Neue, Arial, sans-serif">(~62k films)</text>
      </g>
      <!-- TMDB API -->
      <g transform="translate(220, 180)" filter="url(#dropShadow)">
        <polygon points="0,-25 75,0 150,-25 75,-50" fill="url(#blueTop)" />
        <polygon points="0,-25 0,50 75,75 75,0" fill="url(#blueLeft)" />
        <polygon points="75,0 150,-25 150,50 75,75" fill="url(#blueRight)" />
        <text x="75" y="10" text-anchor="middle" fill="white" font-size="12" font-family="Segoe UI, Helvetica Neue, Arial, sans-serif">TMDB API</text>
        <text x="75" y="25" text-anchor="middle" fill="#cbd5e1" font-size="10" font-family="Segoe UI, Helvetica Neue, Arial, sans-serif">(metadata + search)</text>
      </g>
      <!-- Letterboxd -->
      <g transform="translate(390, 180)" filter="url(#dropShadow)">
        <polygon points="0,-25 75,0 150,-25 75,-50" fill="url(#amberTop)" />
        <polygon points="0,-25 0,50 75,75 75,0" fill="url(#amberLeft)" />
        <polygon points="75,0 150,-25 150,50 75,75" fill="url(#amberRight)" />
        <text x="75" y="10" text-anchor="middle" fill="white" font-size="12" font-family="Segoe UI, Helvetica Neue, Arial, sans-serif">Letterboxd</text>
        <text x="75" y="25" text-anchor="middle" fill="#cbd5e1" font-size="10" font-family="Segoe UI, Helvetica Neue, Arial, sans-serif">(RSS / CSV export)</text>
      </g>
      <!-- Prestige Lists -->
      <g transform="translate(560, 180)" filter="url(#dropShadow)">
        <polygon points="0,-25 75,0 150,-25 75,-50" fill="url(#roseTop)" />
        <polygon points="0,-25 0,50 75,75 75,0" fill="url(#roseLeft)" />
        <polygon points="75,0 150,-25 150,50 75,75" fill="url(#roseRight)" />
        <text x="75" y="10" text-anchor="middle" fill="white" font-size="12" font-family="Segoe UI, Helvetica Neue, Arial, sans-serif">Prestige Lists</text>
        <text x="75" y="25" text-anchor="middle" fill="#cbd5e1" font-size="10" font-family="Segoe UI, Helvetica Neue, Arial, sans-serif">(S&amp;S, TSPDT, Criterion, Ebert)</text>
      </g>
      <!-- Manual Input -->
      <g transform="translate(730, 180)" filter="url(#dropShadow)">
        <polygon points="0,-25 75,0 150,-25 75,-50" fill="url(#purpleTop)" />
        <polygon points="0,-25 0,50 75,75 75,0" fill="url(#purpleLeft)" />
        <polygon points="75,0 150,-25 150,50 75,75" fill="url(#purpleRight)" />
        <text x="75" y="10" text-anchor="middle" fill="white" font-size="12" font-family="Segoe UI, Helvetica Neue, Arial, sans-serif">Manual Input</text>
        <text x="75" y="25" text-anchor="middle" fill="#cbd5e1" font-size="10" font-family="Segoe UI, Helvetica Neue, Arial, sans-serif">(add / del / list)</text>
      </g>
    </g>

    <!-- Layer 2 - INGESTION & PROCESSING -->
    <text x="100" y="290" fill="#94a3b8" font-size="14" font-weight="bold" font-family="Segoe UI, Helvetica Neue, Arial, sans-serif">LAYER 2 - INGESTION &amp; PROCESSING</text>
    <g id="layer2_blocks">
      <!-- catalog.py -->
      <g transform="translate(80, 330)" filter="url(#dropShadow)">
        <polygon points="0,-25 75,0 150,-25 75,-50" fill="url(#blueTop)" />
        <polygon points="0,-25 0,50 75,75 75,0" fill="url(#blueLeft)" />
        <polygon points="75,0 150,-25 150,50 75,75" fill="url(#blueRight)" />
        <text x="75" y="10" text-anchor="middle" fill="white" font-size="12" font-family="monospace">catalog.py</text>
        <text x="75" y="25" text-anchor="middle" fill="#cbd5e1" font-size="10" font-family="monospace">(download_movielens,</text>
        <text x="75" y="38" text-anchor="middle" fill="#cbd5e1" font-size="10" font-family="monospace">fetch_all_metadata)</text>
      </g>
      <!-- tmdb.py -->
      <g transform="translate(250, 330)" filter="url(#dropShadow)">
        <polygon points="0,-25 75,0 150,-25 75,-50" fill="url(#blueTop)" />
        <polygon points="0,-25 0,50 75,75 75,0" fill="url(#blueLeft)" />
        <polygon points="75,0 150,-25 150,50 75,75" fill="url(#blueRight)" />
        <text x="75" y="10" text-anchor="middle" fill="white" font-size="12" font-family="monospace">tmdb.py</text>
        <text x="75" y="25" text-anchor="middle" fill="#cbd5e1" font-size="10" font-family="monospace">(TMDBClient,</text>
        <text x="75" y="38" text-anchor="middle" fill="#cbd5e1" font-size="10" font-family="monospace">SQLite cache layer)</text>
      </g>
      <!-- letterboxd.py -->
      <g transform="translate(420, 330)" filter="url(#dropShadow)">
        <polygon points="0,-25 75,0 150,-25 75,-50" fill="url(#amberTop)" />
        <polygon points="0,-25 0,50 75,75 75,0" fill="url(#amberLeft)" />
        <polygon points="75,0 150,-25 150,50 75,75" fill="url(#amberRight)" />
        <text x="75" y="10" text-anchor="middle" fill="white" font-size="12" font-family="monospace">letterboxd.py</text>
        <text x="75" y="25" text-anchor="middle" fill="#cbd5e1" font-size="10" font-family="monospace">(scrape_ratings,</text>
        <text x="75" y="38" text-anchor="middle" fill="#cbd5e1" font-size="10" font-family="monospace">read_csv_export)</text>
      </g>
      <!-- prestige.py -->
      <g transform="translate(590, 330)" filter="url(#dropShadow)">
        <polygon points="0,-25 75,0 150,-25 75,-50" fill="url(#roseTop)" />
        <polygon points="0,-25 0,50 75,75 75,0" fill="url(#roseLeft)" />
        <polygon points="75,0 150,-25 150,50 75,75" fill="url(#roseRight)" />
        <text x="75" y="10" text-anchor="middle" fill="white" font-size="12" font-family="monospace">prestige.py</text>
        <text x="75" y="25" text-anchor="middle" fill="#cbd5e1" font-size="10" font-family="monospace">(prestige_score,</text>
        <text x="75" y="38" text-anchor="middle" fill="#cbd5e1" font-size="10" font-family="monospace">1.0x-1.3x boost)</text>
      </g>
      <!-- config.py -->
      <g transform="translate(760, 330)" filter="url(#dropShadow)">
        <polygon points="0,-25 75,0 150,-25 75,-50" fill="url(#slateTop)" />
        <polygon points="0,-25 0,50 75,75 75,0" fill="url(#slateLeft)" />
        <polygon points="75,0 150,-25 150,50 75,75" fill="url(#slateRight)" />
        <text x="75" y="10" text-anchor="middle" fill="white" font-size="12" font-family="monospace">config.py</text>
        <text x="75" y="25" text-anchor="middle" fill="#cbd5e1" font-size="10" font-family="monospace">(paths, thresholds,</text>
        <text x="75" y="38" text-anchor="middle" fill="#cbd5e1" font-size="10" font-family="monospace">locale boosts, DEFAULT_TEMPERATURE)</text>
      </g>
    </g>

    <!-- Layer 3 - STORAGE -->
    <text x="100" y="440" fill="#94a3b8" font-size="14" font-weight="bold" font-family="Segoe UI, Helvetica Neue, Arial, sans-serif">LAYER 3 - STORAGE</text>
    <g id="layer3_cylinders">
      <!-- tmdb_cache.db -->
      <g transform="translate(80, 480)" filter="url(#dropShadow)">
        <ellipse cx="75" cy="25" rx="75" ry="20" fill="url(#blueTop)" />
        <path d="M 0 25 A 75 20 0 0 0 150 25 L 150 100 A 75 20 0 0 1 0 100 Z" fill="url(#blueRight)" />
        <text x="75" y="50" text-anchor="middle" fill="white" font-size="12" font-family="monospace">tmdb_cache.db</text>
        <text x="75" y="65" text-anchor="middle" fill="#cbd5e1" font-size="10" font-family="Segoe UI, Helvetica Neue, Arial, sans-serif">(~85k films, SQLite)</text>
      </g>
      <!-- ratings.json -->
      <g transform="translate(250, 480)" filter="url(#dropShadow)">
        <ellipse cx="75" cy="25" rx="75" ry="20" fill="url(#amberTop)" />
        <path d="M 0 25 A 75 20 0 0 0 150 25 L 150 100 A 75 20 0 0 1 0 100 Z" fill="url(#amberRight)" />
        <text x="75" y="50" text-anchor="middle" fill="white" font-size="12" font-family="monospace">ratings.json</text>
        <text x="75" y="65" text-anchor="middle" fill="#cbd5e1" font-size="10" font-family="Segoe UI, Helvetica Neue, Arial, sans-serif">(TMDB ID -> score 1-10)</text>
      </g>
      <!-- embeddings.npz -->
      <g transform="translate(420, 480)" filter="url(#dropShadow)">
        <ellipse cx="75" cy="25" rx="75" ry="20" fill="url(#indigoTop)" />
        <path d="M 0 25 A 75 20 0 0 0 150 25 L 150 100 A 75 20 0 0 1 0 100 Z" fill="url(#indigoRight)" />
        <text x="75" y="50" text-anchor="middle" fill="white" font-size="12" font-family="monospace">embeddings.npz</text>
        <text x="75" y="65" text-anchor="middle" fill="#cbd5e1" font-size="10" font-family="Segoe UI, Helvetica Neue, Arial, sans-serif">(384-dim vectors)</text>
      </g>
      <!-- prestige_index.json -->
      <g transform="translate(590, 480)" filter="url(#dropShadow)">
        <ellipse cx="75" cy="25" rx="75" ry="20" fill="url(#roseTop)" />
        <path d="M 0 25 A 75 20 0 0 0 150 25 L 150 100 A 75 20 0 0 1 0 100 Z" fill="url(#roseRight)" />
        <text x="75" y="50" text-anchor="middle" fill="white" font-size="12" font-family="monospace">prestige_index.json</text>
        <text x="75" y="65" text-anchor="middle" fill="#cbd5e1" font-size="10" font-family="Segoe UI, Helvetica Neue, Arial, sans-serif">(TMDB ID -> 1.0-1.3)</text>
      </g>
      <!-- features.npz (legacy) -->
      <g transform="translate(760, 480)" filter="url(#dropShadow)">
        <ellipse cx="75" cy="25" rx="75" ry="20" fill="url(#indigoTop)" stroke="#fbbf24" stroke-dasharray="4 2" />
        <path d="M 0 25 A 75 20 0 0 0 150 25 L 150 100 A 75 20 0 0 1 0 100 Z" fill="url(#indigoRight)" stroke="#fbbf24" stroke-dasharray="4 2" />
        <text x="75" y="50" text-anchor="middle" fill="white" font-size="12" font-family="monospace">features.npz</text>
        <text x="75" y="65" text-anchor="middle" fill="#cbd5e1" font-size="10" font-family="Segoe UI, Helvetica Neue, Arial, sans-serif">(legacy)</text>
      </g>
      <!-- nn_model.pt (legacy) -->
      <g transform="translate(930, 480)" filter="url(#dropShadow)">
        <ellipse cx="75" cy="25" rx="75" ry="20" fill="url(#indigoTop)" stroke="#fbbf24" stroke-dasharray="4 2" />
        <path d="M 0 25 A 75 20 0 0 0 150 25 L 150 100 A 75 20 0 0 1 0 100 Z" fill="url(#indigoRight)" stroke="#fbbf24" stroke-dasharray="4 2" />
        <text x="75" y="50" text-anchor="middle" fill="white" font-size="12" font-family="monospace">nn_model.pt</text>
        <text x="75" y="65" text-anchor="middle" fill="#cbd5e1" font-size="10" font-family="Segoe UI, Helvetica Neue, Arial, sans-serif">(legacy)</text>
      </g>
    </g>

    <!-- Layer 4 - EMBEDDING ENGINE -->
    <text x="100" y="590" fill="#94a3b8" font-size="14" font-weight="bold" font-family="Segoe UI, Helvetica Neue, Arial, sans-serif">LAYER 4 - EMBEDDING ENGINE</text>
    <g id="layer4_block">
      <g transform="translate(150, 630)" filter="url(#dropShadow)">
        <polygon points="0,-50 150,0 300,-50 150,-100" fill="url(#indigoTop)" />
        <polygon points="0,-50 0,100 150,150 150,0" fill="url(#indigoLeft)" />
        <polygon points="150,0 300,-50 300,100 150,150" fill="url(#indigoRight)" />
        <text x="150" y="0" text-anchor="middle" fill="white" font-size="16" font-weight="bold" font-family="Segoe UI, Helvetica Neue, Arial, sans-serif">EMBEDDING ENGINE</text>
        <text x="150" y="30" text-anchor="middle" fill="white" font-size="12" font-family="monospace">embeddings.py - Sentence Transformer</text>
        <text x="150" y="50" text-anchor="middle" fill="#cbd5e1" font-size="10" font-family="monospace">Model: paraphrase-multilingual-MiniLM-L12-v2</text>
      </g>
      <!-- Film Text Composition Detail Box -->
      <rect x="500" y="600" width="300" height="120" rx="8" ry="8" fill="#2d3748" stroke="#818cf8" stroke-width="2" filter="url(#dropShadow)" />
      <text x="650" y="615" text-anchor="middle" fill="#818cf8" font-size="12" font-weight="bold" font-family="Segoe UI, Helvetica Neue, Arial, sans-serif">Film Text Composition</text>
      <text x="510" y="635" fill="#cbd5e1" font-size="10" font-family="monospace">Title: The Matrix</text>
      <text x="510" y="648" fill="#cbd5e1" font-size="10" font-family="monospace">Genres: Sci-Fi, Action</text>
      <text x="510" y="661" fill="#cbd5e1" font-size="10" font-family="monospace">Director: Wachowskis</text>
      <text x="510" y="674" fill="#cbd5e1" font-size="10" font-family="monospace">Overview: A computer hacker learns...</text>
      <text x="510" y="687" fill="#cbd5e1" font-size="10" font-family="monospace">Keywords: cyberpunk, virtual reality</text>
      <text x="510" y="700" fill="#cbd5e1" font-size="10" font-family="monospace">Country: USA, Year: 1999</text>
    </g>

    <!-- Layer 5 - RECOMMENDATION ENGINE -->
    <text x="100" y="750" fill="#94a3b8" font-size="14" font-weight="bold" font-family="Segoe UI, Helvetica Neue, Arial, sans-serif">LAYER 5 - RECOMMENDATION ENGINE</text>
    <g id="layer5_block">
      <g transform="translate(100, 790)" filter="url(#dropShadow)">
        <polygon points="0,-60 200,0 400,-60 200,-120" fill="url(#greenTop)" />
        <polygon points="0,-60 0,120 200,180 200,0" fill="url(#greenLeft)" />
        <polygon points="200,0 400,-60 400,120 200,180" fill="url(#greenRight)" />
        <text x="200" y="-20" text-anchor="middle" fill="white" font-size="18" font-weight="bold" font-family="Segoe UI, Helvetica Neue, Arial, sans-serif">RECOMMENDATION ENGINE</text>
        <text x="200" y="20" text-anchor="middle" fill="white" font-size="14" font-family="monospace">recommend() in embeddings.py</text>
      </g>
      <!-- Scoring Pipeline Detail Box -->
      <rect x="550" y="760" width="400" height="180" rx="8" ry="8" fill="#2d3748" stroke="#34d399" stroke-width="2" filter="url(#dropShadow)" />
      <text x="750" y="775" text-anchor="middle" fill="#34d399" font-size="12" font-weight="bold" font-family="Segoe UI, Helvetica Neue, Arial, sans-serif">Scoring Pipeline</text>
      <text x="560" y="795" fill="#cbd5e1" font-size="10" font-family="monospace">Taste Profile: positive = weighted_mean(9-10 rated),</text>
      <text x="560" y="808" fill="#cbd5e1" font-size="10" font-family="monospace">               negative = weighted_mean(1-5 rated),</text>
      <text x="560" y="821" fill="#cbd5e1" font-size="10" font-family="monospace">               profile = pos - 0.8 * neg</text>
      <text x="560" y="844" fill="#cbd5e1" font-size="10" font-family="monospace">Final Score: sim² x quality x obscurity_boost x locale</text>
      <text x="560" y="857" fill="#cbd5e1" font-size="10" font-family="monospace">             x director x prestige x nn_blend</text>
      <text x="560" y="880" fill="#cbd5e1" font-size="10" font-family="monospace">Filters: votes &gt;= 300, TMDB &gt;= 7.0, runtime &gt;= 60m,</text>
      <text x="560" y="893" fill="#cbd5e1" font-size="10" font-family="monospace">         sim &gt;= 0.25, genre cap 40%</text>
    </g>

    <!-- Layer 6 - NEW FEATURES -->
    <text x="100" y="900" fill="#94a3b8" font-size="14" font-weight="bold" font-family="Segoe UI, Helvetica Neue, Arial, sans-serif">LAYER 6 - NEW FEATURES</text>
    <g id="layer6_blocks">
      <!-- Temperature Block -->
      <g transform="translate(100, 940)" filter="url(#dropShadow)">
        <polygon points="0,-30 100,0 200,-30 100,-60" fill="url(#tealTop)" />
        <polygon points="0,-30 0,80 100,110 100,0" fill="url(#tealLeft)" />
        <polygon points="100,0 200,-30 200,80 100,110" fill="url(#tealRight)" />
        <text x="100" y="-10" text-anchor="middle" fill="white" font-size="14" font-weight="bold" font-family="Segoe UI, Helvetica Neue, Arial, sans-serif">Temperature Noise</text>
        <text x="100" y="20" text-anchor="middle" fill="#cbd5e1" font-size="10" font-family="monospace">score *= exp(temp * N(0,1))</text>
        <text x="100" y="35" text-anchor="middle" fill="#cbd5e1" font-size="10" font-family="Segoe UI, Helvetica Neue, Arial, sans-serif">Multiplicative log-normal</text>
        <text x="100" y="50" text-anchor="middle" fill="#cbd5e1" font-size="10" font-family="Segoe UI, Helvetica Neue, Arial, sans-serif">Controls ranking diversity</text>
        <text x="100" y="65" text-anchor="middle" fill="#cbd5e1" font-size="10" font-family="monospace">--temp 0.0 to 1.0</text>
        <text x="100" y="80" text-anchor="middle" fill="#cbd5e1" font-size="10" font-family="Segoe UI, Helvetica Neue, Arial, sans-serif">Applied before sort</text>
      </g>
      <!-- Explanation Block -->
      <g transform="translate(350, 940)" filter="url(#dropShadow)">
        <polygon points="0,-30 100,0 200,-30 100,-60" fill="url(#orangeTop)" />
        <polygon points="0,-30 0,80 100,110 100,0" fill="url(#orangeLeft)" />
        <polygon points="100,0 200,-30 200,80 100,110" fill="url(#orangeRight)" />
        <text x="100" y="-10" text-anchor="middle" fill="white" font-size="14" font-weight="bold" font-family="Segoe UI, Helvetica Neue, Arial, sans-serif">Match Explanations</text>
        <text x="100" y="20" text-anchor="middle" fill="#cbd5e1" font-size="10" font-family="monospace">_build_explanation()</text>
        <text x="100" y="35" text-anchor="middle" fill="#cbd5e1" font-size="10" font-family="Segoe UI, Helvetica Neue, Arial, sans-serif">Template-based prose</text>
        <text x="100" y="50" text-anchor="middle" fill="#cbd5e1" font-size="10" font-family="Segoe UI, Helvetica Neue, Arial, sans-serif">Analyzes scoring components</text>
        <text x="100" y="65" text-anchor="middle" fill="#cbd5e1" font-size="10" font-family="Segoe UI, Helvetica Neue, Arial, sans-serif">Highlights: similarity, director affinity,</text>
        <text x="100" y="78" text-anchor="middle" fill="#cbd5e1" font-size="10" font-family="Segoe UI, Helvetica Neue, Arial, sans-serif">obscurity, quality, prestige, locale</text>
      </g>
    </g>

    <!-- OUTPUT -->
    <rect x="700" y="940" width="250" height="60" rx="30" ry="30" fill="#2d3748" stroke="#60a5fa" stroke-width="2" filter="url(#dropShadow)" />
    <text x="825" y="960" text-anchor="middle" fill="white" font-size="16" font-weight="bold" font-family="Segoe UI, Helvetica Neue, Arial, sans-serif">TOP N RECOMMENDATIONS</text>
    <text x="825" y="978" text-anchor="middle" fill="#cbd5e1" font-size="12" font-family="Segoe UI, Helvetica Neue, Arial, sans-serif">ranked, genre-diversified, explained</text>

    <!-- CLI ENTRYPOINT (Right Side Panel) -->
    <g id="cli_panel">
      <rect x="980" y="120" width="200" height="750" rx="10" ry="10" fill="url(#purpleRight)" stroke="#a78bfa" stroke-width="2" filter="url(#dropShadow)" />
      <text x="1080" y="140" text-anchor="middle" fill="white" font-size="18" font-weight="bold" font-family="Segoe UI, Helvetica Neue, Arial, sans-serif">CLI Entrypoint</text>
      <text x="1080" y="170" text-anchor="middle" fill="#cbd5e1" font-size="14" font-family="monospace">recommend.py</text>

      <text x="1080" y="210" text-anchor="middle" fill="white" font-size="14" font-weight="bold" font-family="Segoe UI, Helvetica Neue, Arial, sans-serif">Commands:</text>
      <text x="1080" y="235" text-anchor="middle" fill="#cbd5e1" font-size="12" font-family="monospace">setup</text>
      <text x="1080" y="255" text-anchor="middle" fill="#cbd5e1" font-size="12" font-family="monospace">ingest</text>
      <text x="1080" y="275" text-anchor="middle" fill="#cbd5e1" font-size="12" font-family="monospace">train</text>
      <text x="1080" y="295" text-anchor="middle" fill="#cbd5e1" font-size="12" font-family="monospace">run</text>
      <text x="1080" y="315" text-anchor="middle" fill="#cbd5e1" font-size="12" font-family="monospace">build</text>
      <text x="1080" y="335" text-anchor="middle" fill="#cbd5e1" font-size="12" font-family="monospace">add</text>
      <text x="1080" y="355" text-anchor="middle" fill="#cbd5e1" font-size="12" font-family="monospace">list</text>
      <text x="1080" y="375" text-anchor="middle" fill="#cbd5e1" font-size="12" font-family="monospace">del</text>

      <text x="1080" y="415" text-anchor="middle" fill="white" font-size="14" font-weight="bold" font-family="Segoe UI, Helvetica Neue, Arial, sans-serif">Flags (on 'run'):</text>
      <text x="1080" y="440" text-anchor="middle" fill="#cbd5e1" font-size="12" font-family="monospace">--top N</text>
      <text x="1080" y="460" text-anchor="middle" fill="#cbd5e1" font-size="12" font-family="monospace">--temp T</text>

      <text x="1080" y="500" text-anchor="middle" fill="white" font-size="14" font-weight="bold" font-family="Segoe UI, Helvetica Neue, Arial, sans-serif">Typical Workflow:</text>
      <text x="1080" y="525" text-anchor="middle" fill="#cbd5e1" font-size="12" font-family="monospace">1. setup</text>
      <text x="1080" y="545" text-anchor="middle" fill="#cbd5e1" font-size="12" font-family="monospace">2. ingest/add</text>
      <text x="1080" y="565" text-anchor="middle" fill="#cbd5e1" font-size="12" font-family="monospace">3. train</text>
      <text x="1080" y="585" text-anchor="middle" fill="#cbd5e1" font-size="12" font-family="monospace">4. run --temp 0.3</text>
    </g>

    <!-- Arrows (Dashed) -->
    <g stroke="#94a3b8" stroke-width="1.5" stroke-dasharray="5 3" fill="none">
      <!-- Layer 1 to Layer 2 -->
      <path d="M 125 255 L 125 290 L 115 290 L 115 310" marker-end="url(#arrowhead)" /> <!-- MovieLens to catalog.py -->
      <path d="M 295 255 L 295 290 L 285 290 L 285 310" marker-end="url(#arrowhead)" /> <!-- TMDB API to tmdb.py -->
      <path d="M 465 255 L 465 290 L 455 290 L 455 310" marker-end="url(#arrowhead)" /> <!-- Letterboxd to letterboxd.py -->
      <path d="M 635 255 L 635 290 L 625 290 L 625 310" marker-end="url(#arrowhead)" /> <!-- Prestige Lists to prestige.py -->
      <path d="M 805 255 L 805 290 L 795 290 L 795 310" marker-end="url(#arrowhead)" /> <!-- Manual Input to config.py (indirect, but for flow) -->

      <!-- Layer 2 to Layer 3 -->
      <path d="M 155 405 L 155 460 L 145 460 L 145 480" marker-end="url(#arrowhead)" /> <!-- catalog.py to tmdb_cache.db -->
      <path d="M 325 405 L 325 460 L 315 460 L 315 480" marker-end="url(#arrowhead)" /> <!-- tmdb.py to ratings.json -->
      <path d="M 495 405 L 495 460 L 485 460 L 485 480" marker-end="url(#arrowhead)" /> <!-- letterboxd.py to embeddings.npz (indirect) -->
      <path d="M 665 405 L 665 460 L 655 460 L 655 480" marker-end="url(#arrowhead)" /> <!-- prestige.py to prestige_index.json -->
      <path d="M 835 405 L 835 460 L 825 460 L 825 480" marker-end="url(#arrowhead)" /> <!-- config.py to features.npz (indirect) -->

      <!-- Layer 3 to Layer 4 (Embeddings) -->
      <path d="M 495 580 L 495 610 L 300 610 L 300 620" marker-end="url(#arrowhead)" /> <!-- embeddings.npz to Embedding Engine -->
      <path d="M 325 580 L 325 600 L 250 600 L 250 620" marker-end="url(#arrowhead)" /> <!-- ratings.json to Embedding Engine (for taste profile) -->

      <!-- Layer 4 to Layer 5 (Recommendation Engine) -->
      <path d="M 300 730 L 300 770" marker-end="url(#arrowhead)" /> <!-- Embedding Engine to Recommendation Engine -->
      <path d="M 650 720 L 650 750 L 500 750 L 500 780" marker-end="url(#arrowhead)" /> <!-- Film Text Composition to Scoring Pipeline -->

      <!-- Layer 5 to Layer 6 (New Features) -->
      <path d="M 200 910 L 200 920" marker-end="url(#arrowhead)" /> <!-- Recommendation Engine to Temperature Block -->
      <path d="M 400 910 L 400 920" marker-end="url(#arrowhead)" /> <!-- Recommendation Engine to Explanation Block -->

      <!-- Layer 6 to Output -->
      <path d="M 200 1020 L 200 1030 L 825 1030 L 825 1000" marker-end="url(#arrowhead)" /> <!-- Temperature Block to Output -->
      <path d="M 450 1020 L 450 1030 L 825 1030 L 825 1000" marker-end="url(#arrowhead)" /> <!-- Explanation Block to Output -->

      <!-- CLI to Engine (run command) -->
      <path d="M 980 300 L 970 300 L 970 800 L 500 800 L 500 790" marker-end="url(#arrowhead)" />
      <!-- CLI to Temperature -->
      <path d="M 980 460 L 970 460 L 970 950 L 300 950 L 300 940" marker-end="url(#arrowhead)" />
    </g>

    <!-- Legend -->
    <g id="legend" transform="translate(50, 780)">
      <text x="0" y="0" fill="#94a3b8" font-size="14" font-weight="bold" font-family="Segoe UI, Helvetica Neue, Arial, sans-serif">LEGEND</text>
      <!-- Column 1 -->
      <rect x="0" y="20" width="15" height="15" fill="#3b82f6" />
      <text x="25" y="32" fill="white" font-size="12" font-family="Segoe UI, Helvetica Neue, Arial, sans-serif">Blue: Catalog/Data Ingestion</text>
      <rect x="0" y="45" width="15" height="15" fill="#34d399" />
      <text x="25" y="57" fill="white" font-size="12" font-family="Segoe UI, Helvetica Neue, Arial, sans-serif">Green: API/Engine</text>
      <rect x="0" y="70" width="15" height="15" fill="#fbbf24" />
      <text x="25" y="82" fill="white" font-size="12" font-family="Segoe UI, Helvetica Neue, Arial, sans-serif">Amber/Yellow: User Data</text>
      <rect x="0" y="95" width="15" height="15" fill="#818cf8" />
      <text x="25" y="107" fill="white" font-size="12" font-family="Segoe UI, Helvetica Neue, Arial, sans-serif">Indigo: ML/Embeddings</text>
      <rect x="0" y="120" width="15" height="15" fill="#fb7185" />
      <text x="25" y="132" fill="white" font-size="12" font-family="Segoe UI, Helvetica Neue, Arial, sans-serif">Rose/Pink: Prestige</text>
      <!-- Column 2 -->
      <rect x="200" y="20" width="15" height="15" fill="#a78bfa" />
      <text x="225" y="32" fill="white" font-size="12" font-family="Segoe UI, Helvetica Neue, Arial, sans-serif">Purple: User Input/CLI</text>
      <rect x="200" y="45" width="15" height="15" fill="#64748b" />
      <text x="225" y="57" fill="white" font-size="12" font-family="Segoe UI, Helvetica Neue, Arial, sans-serif">Slate: Config/Infrastructure</text>
      <rect x="200" y="70" width="15" height="15" fill="#14b8a6" />
      <text x="225" y="82" fill="white" font-size="12" font-family="Segoe UI, Helvetica Neue, Arial, sans-serif">Teal: Temperature/Randomness</text>
      <rect x="200" y="95" width="15" height="15" fill="#f97316" />
      <text x="225" y="107" fill="white" font-size="12" font-family="Segoe UI, Helvetica Neue, Arial, sans-serif">Orange: Explanations</text>
    </g>

  </g>
</svg>